<svg xmlns="http://www.w3.org/2000/svg" width="100%" viewBox="0 0 680 740" role="img">
<title>L2 — Runtime request path · v2</title>
<desc>Canonical runtime map. Request flows from User access through LogicOS, PuddleJumper API with Org Manager routing, fans into transit surfaces (Auth, Routes, Connectors) and work surfaces (Governance engine, Feature modules), durable writes land in Operational stores, then audit_events. ARCHIEVE / SEAL receives where the path is wired. Sideband badges mark auth, ext, admin, append, sealed properties. Solid heavy arrows = default write path. Dashed = conditional / wired-by-feature.</desc>
<defs>
<marker id="arrow" viewBox="0 0 10 10" refX="8" refY="5" markerWidth="6" markerHeight="6" orient="auto-start-reverse"><path d="M2 1L8 5L2 9" fill="none" stroke="context-stroke" stroke-width="1.5" stroke-linecap="round" stroke-linejoin="round"/></marker>
<style>
text { font-family: system-ui, -apple-system, sans-serif; }
.title { font-size: 18px; font-weight: 500; fill: #2C2C2A; }
.subtitle { font-size: 12px; fill: #5F5E5A; }
.banner { font-size: 11px; fill: #5F5E5A; font-weight: 500; }
.t  { font-size: 14px; fill: #2C2C2A; }
.ts { font-size: 12px; fill: #5F5E5A; }
.th { font-size: 14px; font-weight: 500; fill: #2C2C2A; }
.arr-w  { stroke: #444441; stroke-width: 2;   fill: none; stroke-linecap: round; }
.arr-r  { stroke: #888780; stroke-width: 1;   fill: none; stroke-linecap: round; }
.arr-cw { stroke: #444441; stroke-width: 2;   fill: none; stroke-linecap: round; stroke-dasharray: 5 4; }
.arr-cr { stroke: #888780; stroke-width: 1;   fill: none; stroke-linecap: round; stroke-dasharray: 4 3; }
.gray   > rect { fill: #F1EFE8; stroke: #5F5E5A; stroke-width: 0.5; }
.gray   .th, .gray .ts { fill: #2C2C2A; }
.coral  > rect { fill: #FAECE7; stroke: #993C1D; stroke-width: 0.5; }
.coral  .th { fill: #712B13; } .coral .ts { fill: #993C1D; }
.teal   > rect { fill: #E1F5EE; stroke: #0F6E56; stroke-width: 0.5; }
.teal   .th { fill: #085041; } .teal .ts { fill: #0F6E56; }
.purple > rect { fill: #EEEDFE; stroke: #534AB7; stroke-width: 0.5; }
.purple .th { fill: #3C3489; } .purple .ts { fill: #534AB7; }
.badge > rect { fill: #FFFFFF; stroke: #888780; stroke-width: 0.5; }
.badge text { font-size: 11px; fill: #444441; font-weight: 500; }
@media (prefers-color-scheme: dark) {
  .title { fill: #F1EFE8; }
  .subtitle { fill: #B4B2A9; }
  .banner { fill: #B4B2A9; }
  .t  { fill: #E5E4DC; }
  .ts { fill: #B4B2A9; }
  .th { fill: #F1EFE8; }
  .arr-w, .arr-cw { stroke: #D3D1C7; }
  .arr-r, .arr-cr { stroke: #B4B2A9; }
  .gray   > rect { fill: #2C2C2A; stroke: #B4B2A9; }
  .gray   .th, .gray .ts { fill: #F1EFE8; }
  .coral  > rect { fill: #712B13; stroke: #F0997B; }
  .coral  .th { fill: #FAECE7; } .coral .ts { fill: #F5C4B3; }
  .teal   > rect { fill: #085041; stroke: #5DCAA5; }
  .teal   .th { fill: #E1F5EE; } .teal .ts { fill: #9FE1CB; }
  .purple > rect { fill: #3C3489; stroke: #AFA9EC; }
  .purple .th { fill: #EEEDFE; } .purple .ts { fill: #CECBF6; }
  .badge > rect { fill: #2C2C2A; stroke: #B4B2A9; }
  .badge text { fill: #D3D1C7; }
}
</style>
</defs>

<text class="title" x="40" y="30">L2 — Runtime request path</text>
<text class="subtitle" x="40" y="50">Canonical map · solid = default write, dashed = conditional</text>
<text class="subtitle" x="40" y="68">Canonical write path shown; some requests terminate earlier.</text>
<text class="banner" x="640" y="30" text-anchor="end">v2 · 2026-05-05</text>

<g class="gray">
<rect x="240" y="80" width="200" height="56" rx="8"/>
<text class="th" x="340" y="98" text-anchor="middle" dominant-baseline="central">User access</text>
<text class="ts" x="340" y="116" text-anchor="middle" dominant-baseline="central">Citizens · staff</text>
</g>
<line x1="340" y1="136" x2="340" y2="166" class="arr-w" marker-end="url(#arrow)"/>

<g class="coral">
<rect x="140" y="170" width="400" height="56" rx="8"/>
<text class="th" x="340" y="188" text-anchor="middle" dominant-baseline="central">LogicOS</text>
<text class="ts" x="340" y="206" text-anchor="middle" dominant-baseline="central">52 components · 18 pages · React · Vercel</text>
</g>
<line x1="340" y1="226" x2="340" y2="256" class="arr-w" marker-end="url(#arrow)"/>

<g class="teal">
<rect x="140" y="260" width="400" height="56" rx="8"/>
<text class="th" x="340" y="278" text-anchor="middle" dominant-baseline="central">PuddleJumper API</text>
<text class="ts" x="340" y="296" text-anchor="middle" dominant-baseline="central">Fly.io · Org Manager · GitHub API</text>
</g>

<line x1="340" y1="316" x2="160" y2="346" class="arr-w" marker-end="url(#arrow)"/>
<line x1="340" y1="316" x2="340" y2="346" class="arr-w" marker-end="url(#arrow)"/>
<line x1="340" y1="316" x2="520" y2="346" class="arr-w" marker-end="url(#arrow)"/>

<path d="M340,316 V335 H250 V438" class="arr-w" marker-end="url(#arrow)"/>
<path d="M340,316 V335 H430 V438" class="arr-w" marker-end="url(#arrow)"/>

<g class="teal">
<rect x="80" y="350" width="160" height="56" rx="8"/>
<text class="th" x="160" y="368" text-anchor="middle" dominant-baseline="central">Auth · session</text>
<text class="ts" x="160" y="386" text-anchor="middle" dominant-baseline="central">Identity</text>
</g>
<g class="badge">
<rect x="135" y="412" width="50" height="14" rx="7"/>
<text x="160" y="421" text-anchor="middle" dominant-baseline="central">auth</text>
</g>

<g class="teal">
<rect x="260" y="350" width="160" height="56" rx="8"/>
<text class="th" x="340" y="368" text-anchor="middle" dominant-baseline="central">Routes</text>
<text class="ts" x="340" y="386" text-anchor="middle" dominant-baseline="central">Module dispatch</text>
</g>

<g class="teal">
<rect x="440" y="350" width="160" height="56" rx="8"/>
<text class="th" x="520" y="368" text-anchor="middle" dominant-baseline="central">Connectors</text>
<text class="ts" x="520" y="386" text-anchor="middle" dominant-baseline="central">Provider proxies</text>
</g>
<g class="badge">
<rect x="498" y="412" width="44" height="14" rx="7"/>
<text x="520" y="421" text-anchor="middle" dominant-baseline="central">ext</text>
</g>

<g class="teal">
<rect x="120" y="440" width="200" height="56" rx="8"/>
<text class="th" x="220" y="458" text-anchor="middle" dominant-baseline="central">Governance engine</text>
<text class="ts" x="220" y="476" text-anchor="middle" dominant-baseline="central">Approvals · workflow</text>
</g>
<g class="badge">
<rect x="130" y="502" width="50" height="14" rx="7"/>
<text x="155" y="511" text-anchor="middle" dominant-baseline="central">admin</text>
</g>

<g class="teal">
<rect x="360" y="440" width="200" height="56" rx="8"/>
<text class="th" x="460" y="458" text-anchor="middle" dominant-baseline="central">Feature modules</text>
<text class="ts" x="460" y="476" text-anchor="middle" dominant-baseline="central">AED · Civic · PRR</text>
</g>

<line x1="220" y1="496" x2="300" y2="528" class="arr-w" marker-end="url(#arrow)"/>
<line x1="460" y1="496" x2="380" y2="528" class="arr-w" marker-end="url(#arrow)"/>

<g class="purple">
<rect x="140" y="530" width="400" height="56" rx="8"/>
<text class="th" x="340" y="548" text-anchor="middle" dominant-baseline="central">Operational stores</text>
<text class="ts" x="340" y="566" text-anchor="middle" dominant-baseline="central">Durable state · evidence</text>
</g>

<path d="M340,586 V602 H200 V618" class="arr-w" marker-end="url(#arrow)"/>
<path d="M340,586 V602 H480 V618" class="arr-cw" marker-end="url(#arrow)"/>

<g class="purple">
<rect x="80" y="620" width="240" height="32" rx="8"/>
<text class="th" x="200" y="636" text-anchor="middle" dominant-baseline="central">audit_events</text>
</g>
<g class="badge">
<rect x="172" y="656" width="56" height="14" rx="7"/>
<text x="200" y="665" text-anchor="middle" dominant-baseline="central">append</text>
</g>

<g class="purple">
<rect x="360" y="620" width="240" height="32" rx="8"/>
<text class="th" x="480" y="636" text-anchor="middle" dominant-baseline="central">ARCHIEVE / SEAL</text>
</g>
<g class="badge">
<rect x="452" y="656" width="56" height="14" rx="7"/>
<text x="480" y="665" text-anchor="middle" dominant-baseline="central">sealed</text>
</g>
<g transform="translate(380, 690)">
<rect x="0" y="0" width="260" height="40" rx="6" fill="none" stroke="#888780" stroke-width="0.5"/>
<text class="banner" x="8" y="14">Legend</text>
<line x1="8" y1="26" x2="38" y2="26" class="arr-w"/>
<text class="banner" x="44" y="29">write</text>
<line x1="92" y1="26" x2="122" y2="26" class="arr-cw"/>
<text class="banner" x="128" y="29">conditional</text>
<g class="badge"><rect x="200" y="20" width="50" height="14" rx="7"/><text x="225" y="29" text-anchor="middle" dominant-baseline="central">badge</text></g>
</g>
</svg>
