<svg xmlns="http://www.w3.org/2000/svg" width="100%" viewBox="0 0 680 550" role="img">
<title>L4 — Build / deploy pipeline · v2</title>
<desc>Code path from local dev to live URLs. Local dev pushes to GitHub, CI workflow builds, fans into Vercel (LogicOS UI) and Fly.io (PuddleJumper API). External dependencies marked with ext, async builds marked with async. See _glossary.md.</desc>
<defs>
<marker id="arrow" viewBox="0 0 10 10" refX="8" refY="5" markerWidth="6" markerHeight="6" orient="auto-start-reverse"><path d="M2 1L8 5L2 9" fill="none" stroke="context-stroke" stroke-width="1.5" stroke-linecap="round" stroke-linejoin="round"/></marker>
<style>
text { font-family: system-ui, -apple-system, sans-serif; }
.title { font-size: 18px; font-weight: 500; fill: #2C2C2A; }
.subtitle { font-size: 12px; fill: #5F5E5A; }
.banner { font-size: 11px; fill: #5F5E5A; font-weight: 500; }
.th { font-size: 14px; font-weight: 500; fill: #2C2C2A; }
.ts { font-size: 12px; fill: #5F5E5A; }
.arr-w { stroke: #444441; stroke-width: 2; fill: none; stroke-linecap: round; }
.gray   > rect { fill: #F1EFE8; stroke: #5F5E5A; stroke-width: 0.5; }
.gray   .th { fill: #2C2C2A; } .gray .ts { fill: #5F5E5A; }
.teal   > rect { fill: #E1F5EE; stroke: #0F6E56; stroke-width: 0.5; }
.teal   .th { fill: #085041; } .teal .ts { fill: #0F6E56; }
.coral  > rect { fill: #FAECE7; stroke: #993C1D; stroke-width: 0.5; }
.coral  .th { fill: #712B13; } .coral .ts { fill: #993C1D; }
.badge > rect { fill: #FFFFFF; stroke: #888780; stroke-width: 0.5; }
.badge text { font-size: 11px; fill: #444441; font-weight: 500; }
@media (prefers-color-scheme: dark) {
  .title { fill: #F1EFE8; }
  .subtitle { fill: #B4B2A9; }
  .banner { fill: #B4B2A9; }
  .th { fill: #F1EFE8; } .ts { fill: #B4B2A9; }
  .arr-w { stroke: #D3D1C7; }
  .gray   > rect { fill: #2C2C2A; stroke: #B4B2A9; }
  .gray   .th { fill: #F1EFE8; } .gray .ts { fill: #D3D1C7; }
  .teal   > rect { fill: #085041; stroke: #5DCAA5; }
  .teal   .th { fill: #E1F5EE; } .teal .ts { fill: #9FE1CB; }
  .coral  > rect { fill: #712B13; stroke: #F0997B; }
  .coral  .th { fill: #FAECE7; } .coral .ts { fill: #F5C4B3; }
  .badge > rect { fill: #2C2C2A; stroke: #B4B2A9; }
  .badge text { fill: #D3D1C7; }
}
</style>
</defs>

<text class="title" x="40" y="30">L4 — Build / deploy pipeline</text>
<text class="subtitle" x="40" y="50">Local → GitHub → CI → Vercel | Fly.io</text>
<text class="banner" x="640" y="30" text-anchor="end">v2 · 2026-05-05</text>

<g class="gray">
<rect x="240" y="80" width="200" height="56" rx="8"/>
<text class="th" x="340" y="98" text-anchor="middle" dominant-baseline="central">Local dev</text>
<text class="ts" x="340" y="116" text-anchor="middle" dominant-baseline="central">Mac · Cursor / Claude Code</text>
</g>
<line x1="340" y1="136" x2="340" y2="160" class="arr-w" marker-end="url(#arrow)"/>

<g class="gray">
<rect x="240" y="160" width="200" height="56" rx="8"/>
<text class="th" x="340" y="178" text-anchor="middle" dominant-baseline="central">GitHub repo</text>
<text class="ts" x="340" y="196" text-anchor="middle" dominant-baseline="central">main branch</text>
</g>
<g class="badge"><rect x="445" y="181" width="36" height="14" rx="7"/>
<text x="463" y="190" text-anchor="middle" dominant-baseline="central">ext</text></g>
<line x1="340" y1="216" x2="340" y2="240" class="arr-w" marker-end="url(#arrow)"/>

<g class="teal">
<rect x="240" y="240" width="200" height="56" rx="8"/>
<text class="th" x="340" y="258" text-anchor="middle" dominant-baseline="central">CI workflow</text>
<text class="ts" x="340" y="276" text-anchor="middle" dominant-baseline="central">.github/workflows</text>
</g>
<g class="badge"><rect x="445" y="261" width="50" height="14" rx="7"/>
<text x="470" y="270" text-anchor="middle" dominant-baseline="central">async</text></g>

<line x1="340" y1="296" x2="180" y2="340" class="arr-w" marker-end="url(#arrow)"/>
<line x1="340" y1="296" x2="500" y2="340" class="arr-w" marker-end="url(#arrow)"/>

<g class="teal">
<rect x="80" y="344" width="200" height="56" rx="8"/>
<text class="th" x="180" y="362" text-anchor="middle" dominant-baseline="central">Vercel build</text>
<text class="ts" x="180" y="380" text-anchor="middle" dominant-baseline="central">build · deploy</text>
</g>
<g class="badge"><rect x="225" y="406" width="36" height="14" rx="7"/>
<text x="243" y="415" text-anchor="middle" dominant-baseline="central">ext</text></g>

<g class="teal">
<rect x="400" y="344" width="200" height="56" rx="8"/>
<text class="th" x="500" y="362" text-anchor="middle" dominant-baseline="central">Fly.io build</text>
<text class="ts" x="500" y="380" text-anchor="middle" dominant-baseline="central">build · deploy</text>
</g>
<g class="badge"><rect x="545" y="406" width="36" height="14" rx="7"/>
<text x="563" y="415" text-anchor="middle" dominant-baseline="central">ext</text></g>

<line x1="180" y1="424" x2="180" y2="448" class="arr-w" marker-end="url(#arrow)"/>
<line x1="500" y1="424" x2="500" y2="448" class="arr-w" marker-end="url(#arrow)"/>

<g class="coral">
<rect x="80" y="448" width="200" height="44" rx="8"/>
<text class="th" x="180" y="470" text-anchor="middle" dominant-baseline="central">LogicOS UI</text>
</g>

<g class="teal">
<rect x="400" y="448" width="200" height="44" rx="8"/>
<text class="th" x="500" y="470" text-anchor="middle" dominant-baseline="central">api.publiclogic.org</text>
</g>
<g transform="translate(380, 500)">
<rect x="0" y="0" width="260" height="40" rx="6" fill="none" stroke="#888780" stroke-width="0.5"/>
<text class="banner" x="8" y="14">Legend</text>
<line x1="8" y1="26" x2="38" y2="26" class="arr-w"/>
<text class="banner" x="44" y="29">step</text>
<g class="badge"><rect x="92" y="20" width="36" height="14" rx="7"/><text x="110" y="29" text-anchor="middle" dominant-baseline="central">ext</text></g>
<g class="badge"><rect x="138" y="20" width="50" height="14" rx="7"/><text x="163" y="29" text-anchor="middle" dominant-baseline="central">async</text></g>
</g>
</svg>
