<!-- GENERATED by scripts/sync-brand.mjs from branding/mascot/puddlejumper-duck-flat.svg — DO NOT EDIT. -->
<svg xmlns="http://www.w3.org/2000/svg" viewBox="0 0 240 220" role="img" aria-label="PuddleJumper aviator duck">
  <!-- Simplified FLAT vector interpretation of the aviator-duck mascot.
       This is a clean emblem for small/flat contexts — NOT a trace of the
       master illustration. Drop the master raster in this folder
       (puddlejumper-mascot.png) for marketing/hero use. -->

  <!-- scarf tail (trailing) -->
  <path d="M70 150 q-44 6 -58 26 q26 6 50 -4 q14 -6 20 -14 z" fill="#f26a1b"/>
  <!-- neck scarf -->
  <path d="M78 138 q34 16 70 4 l-6 26 q-34 12 -70 -4 z" fill="#f26a1b"/>

  <!-- head -->
  <circle cx="138" cy="100" r="52" fill="#5bb531"/>
  <!-- under-bill cheek -->
  <path d="M150 116 q34 6 44 -4 q-6 18 -40 16 z" fill="#4ca52a"/>

  <!-- beak -->
  <path d="M186 96 q30 -2 34 10 q-6 14 -34 12 q-8 -10 0 -22 z" fill="#f4a81d"/>
  <path d="M188 110 q14 4 30 1" stroke="#cf8b12" stroke-width="2.4" fill="none" stroke-linecap="round"/>

  <!-- eye -->
  <circle cx="150" cy="84" r="13" fill="#ffffff"/>
  <circle cx="153" cy="85" r="6.5" fill="#17211d"/>
  <circle cx="155.5" cy="82.5" r="2" fill="#ffffff"/>

  <!-- aviator cap -->
  <path d="M92 96 Q92 44 142 42 Q188 42 188 80 Q160 60 124 70 Q102 76 96 102 Q92 100 92 96 Z" fill="#7a4a24"/>
  <path d="M92 96 Q88 108 96 116 Q104 110 100 98 Z" fill="#5e3a1c"/>
  <!-- goggles -->
  <g>
    <ellipse cx="122" cy="60" rx="15" ry="12" fill="#cfe8f2" stroke="#5e3a1c" stroke-width="4"/>
    <ellipse cx="154" cy="55" rx="15" ry="12" fill="#cfe8f2" stroke="#5e3a1c" stroke-width="4"/>
    <path d="M135 58 q2 -3 6 -3" stroke="#5e3a1c" stroke-width="4" fill="none"/>
    <path d="M108 64 Q100 70 98 82" stroke="#5e3a1c" stroke-width="5" fill="none" stroke-linecap="round"/>
  </g>

  <!-- speed lines -->
  <path d="M8 92 h40" stroke="#9fc7ef" stroke-width="5" stroke-linecap="round"/>
  <path d="M2 110 h30" stroke="#9fc7ef" stroke-width="5" stroke-linecap="round"/>
</svg>
